<svg width="200" height="200" viewBox="0 0 200 200" fill="none" xmlns="http://www.w3.org/2000/svg">
<g clip-path="url(#clip0)">
<rect width="200" height="200" fill="#F8FBFD"/>
<path d="M202.044 175.977L141.564 151.483L139.411 144.8C138.767 142.561 137.747 140.322 135.649 139.733C134.982 139.546 134.139 138.338 134.03 137.494L132.786 124.498C132.717 123.385 133.167 122.386 133.758 121.685C137.329 117.433 139.276 112.508 140.099 106.877C140.514 104.047 141.996 101.436 142.758 98.6477L145.746 83.1074C146.058 81.0669 145.998 79.4941 143.702 78.7033C143.069 78.484 142.518 77.4417 142.518 75.8789L142.548 46.557C142.061 39.4601 138.279 33.9723 132.915 30.1527C122.669 22.8558 104.321 26.2394 110.31 14.3369C110.663 13.6364 110.55 12.4193 108.089 13.3191C98.9036 16.677 74.4381 25.5498 68.2921 30.1527C62.7913 34.2717 59.1473 39.4601 58.659 46.557L58.6893 75.8789C58.6893 77.1693 58.1387 78.484 57.5047 78.7033C55.2089 79.4936 55.1488 81.0669 55.4607 83.1074L58.4502 98.6477C59.21 101.436 60.6934 104.047 61.1079 106.877C61.9305 112.508 63.8785 117.433 67.4488 121.685C68.0398 122.386 68.4895 123.385 68.4211 124.498L67.1768 137.494C67.0676 138.338 66.223 139.546 65.5579 139.733C63.4595 140.322 62.439 142.561 61.795 144.8L59.6413 151.483L-7.0446 175.977C-8.24759 176.609 -9 177.85 -9 179.202V196.352C-9 198.367 -7.35566 200 -5.32787 200H200.328C202.356 200 204 198.367 204 196.352V179.202C203.999 177.85 203.247 176.609 202.044 175.977Z" fill="#D0D9DE"/>
</g>
<defs>
<clipPath id="clip0">
<rect width="200" height="200" fill="white"/>
</clipPath>
</defs>
</svg>
